<svg id="App_Icon_Kit_A" data-name="App Icon Kit A" xmlns="http://www.w3.org/2000/svg" xmlns:xlink="http://www.w3.org/1999/xlink" viewBox="0 0 1024 500"><defs><style>.cls-1{fill:#eac784;}</style></defs><g id="App_Icon_-_Preview_Sizes" data-name="App Icon - Preview Sizes"><rect class="cls-1" width="1024" height="500"/><image width="512" height="512" transform="translate(162 150.5) scale(0.38 0.39)" xlink:href="../../../Downloads/hot-drink.png"/><path d="M432.11,229.37v-8.25h21.58v-8.05c-10.63-1.65-17.29-8.51-17.29-17.09,0-9.9,9-17.29,22.57-17.29s22.57,7.39,22.57,17.29c0,8.65-6.74,15.51-17.49,17.09v8.05h21.78v8.25ZM459,187.47c-7.13,0-11.82,3.36-11.82,8.64s4.69,8.58,11.82,8.58,11.81-3.3,11.81-8.58S466.09,187.47,459,187.47Z"/><path d="M489.19,206.41v-8.19h53.72v8.19Zm5.94,29.1V219h31v-2h-31v-7.72h41.45v16.3H505.3v2H538v8Zm.66-40V177.24h10.43V187.6h30.89v7.92Z"/><path d="M584.17,222.38a183.79,183.79,0,0,1-21.52,1.78c-5.54.2-11.35.33-15.57.33L546,215.71c7.85,0,13.2-.06,18.81-.19,8-.47,12.74-.67,18.48-1.46ZM580.6,195c0,8.32-6.93,14.72-16.36,14.72S548,203.24,548,194.92s6.8-14.78,16.3-14.78S580.6,186.61,580.6,195ZM558,195a5.85,5.85,0,0,0,6.21,5.87,6,6,0,1,0,.06-12A6,6,0,0,0,558,195Zm38.48-18.61v59.4H586.28v-59.4Z"/><path d="M620.73,229v-8.25h53.72V229Zm48-17.55c-9.56-1.45-18.34-7.26-21.18-14.72-2.64,7.46-12.21,13.33-21.38,14.72l-4.49-8.38c9.7-1.19,20.2-7.66,20.2-19v-3.76h11.35v3.76c0,11.35,10.16,18,20.06,18.94Z"/><path d="M707.45,205.62H690.36v9.1a128.71,128.71,0,0,0,20.79-1.38l.92,8c-8.05,1.45-19.8,1.72-27.78,1.72h-4.23V181.13h28.05v8H690.36v8.31h17.09Zm17.49.52v29.64H714.71v-59.4h10.23V197.7h7.46v8.44Z"/><path d="M737.22,209.31V179.75h10.23v7.32h8.71v-7.32h10.43v9.7h7.52V176.38h10.43V211H774.11V198.22h-7.52v11.09Zm37,26.53V221.39H743.42v-8h41.12v22.44ZM756.16,195h-8.71v6.4h8.71Z"/><path d="M792,229v-8.25h53.72V229Zm48-17.55c-9.57-1.45-18.34-7.26-21.18-14.72-2.64,7.46-12.21,13.33-21.38,14.72L793,203.11c9.7-1.19,20.19-7.66,20.19-19v-3.76h11.35v3.76c0,11.35,10.17,18,20.07,18.94Z"/><path d="M453.75,315V299.86H432.11v-8.18h53.72v8.18H464.05V315ZM466,274c2.44,4.29,8.64,6.6,17.22,7.13l-4,8.25c-6.33-.13-16.43-3.1-20.26-9.31-3.63,6.34-14.12,9.31-20.39,9.51l-4-8.25c8.78-.66,15-2.91,17.36-7.33H436.79v-7.92h44.28V274ZM449.2,263.83v-8h19.47v8Z"/><path d="M513,275.51c.13,6.73,6.47,10.56,11.88,11.81l-4.69,7.86c-4.68-1-10.69-5.41-12.47-9.57-1.72,4.49-7.52,9-13.07,10.56l-4.88-7.86c7.19-2,12.21-6.13,12.34-12.8H491.7v-7.79h31.42v7.79Zm-14.39,38.34V295.77h10.43v10h31.15v8.05Zm.33-48.57V258h17.23v7.32Zm40.65,34.78H529.19v-15h-7.86v-8.64h7.86V255.58h10.42Z"/><path d="M548,300.65V261.19h24v15h3.76v-19.6h9.5v56h-9.5V284.16H572v16.49Zm14.25-31.8H557.5v24.22h4.75ZM588,315v-59.4h9.77V315Z"/><path d="M635.32,315V295.24h-10.5V315H614.46V295.24H603.37v-8.18h53.72v8.18H645.74V315Zm-25.81-33.27V258.15h10.43V273.6h31.35v8.11Z"/><path d="M660.46,291.88v-8.19h53.72v8.19ZM666.14,313V295.84h10.43v8.91h32V313Zm.59-34.06V257.69h10.43v12.94h31.22v8.31Z"/><path d="M722.63,287.79c0-4.43,1.72-6.21,5.75-9.18,2.57-1.85,3.62-3.1,3.62-5.61,0-3.1-2-4.29-6.59-4.29a24.15,24.15,0,0,0-7.79,1.19v-8A30.39,30.39,0,0,1,729.17,260c8.51,0,14.58,3.17,14.58,11.49,0,5.87-2,8.11-6.27,11.28-4,2.71-5.28,3.5-5.28,6.14v4.29h-9.57Zm-.52,11H733v9.76H722.11Z"/></g></svg>