<svg id="App_Icon_Kit_A" data-name="App Icon Kit A" xmlns="http://www.w3.org/2000/svg" viewBox="0 0 60 60"><defs><style>.cls-1{fill:none;stroke:#000;stroke-linecap:round;stroke-miterlimit:10;stroke-width:2.72px;}</style></defs><g id="Notifications_and_Activity_-_Preview" data-name="Notifications and Activity - Preview"><line class="cls-1" x1="30.01" y1="4.32" x2="3" y2="31.33"/><line class="cls-1" x1="29.99" y1="4.32" x2="57" y2="31.33"/><path class="cls-1" d="M30,39.94H25.23a1.32,1.32,0,0,0-1.32,1.32V54.37a1.31,1.31,0,0,1-1.31,1.31H11a1.31,1.31,0,0,1-1.31-1.31V32.08"/><path class="cls-1" d="M30,39.94H34.8a1.31,1.31,0,0,1,1.31,1.32V54.37a1.32,1.32,0,0,0,1.32,1.31H49.05a1.32,1.32,0,0,0,1.32-1.31V32.08"/><path class="cls-1" d="M39.3,7.63h7.86a.93.93,0,0,1,.92.93v7.57"/></g></svg>