<svg id="App_Icon_Kit_A" data-name="App Icon Kit A" xmlns="http://www.w3.org/2000/svg" viewBox="0 0 80 80"><defs><style>.cls-1{fill:none;stroke:#000;stroke-linecap:round;stroke-miterlimit:10;stroke-width:3.63px;}</style></defs><g id="Notifications_and_Activity_-_Preview" data-name="Notifications and Activity - Preview"><line class="cls-1" x1="40.02" y1="5.76" x2="4" y2="41.78"/><line class="cls-1" x1="39.98" y1="5.76" x2="76" y2="41.78"/><path class="cls-1" d="M40,53.26H33.63A1.74,1.74,0,0,0,31.89,55V72.49a1.76,1.76,0,0,1-1.75,1.75H14.63a1.75,1.75,0,0,1-1.75-1.75V42.77"/><path class="cls-1" d="M40,53.26H46.4A1.75,1.75,0,0,1,48.15,55V72.49a1.76,1.76,0,0,0,1.75,1.75H65.41a1.75,1.75,0,0,0,1.75-1.75V42.77"/><path class="cls-1" d="M52.4,10.18H62.87a1.23,1.23,0,0,1,1.24,1.23V21.5"/></g></svg>