<svg id="App_Icon_Kit_A" data-name="App Icon Kit A" xmlns="http://www.w3.org/2000/svg" viewBox="0 0 180 180"><defs><style>.cls-1{fill:none;stroke:#000;stroke-linecap:round;stroke-miterlimit:10;stroke-width:8.57px;}</style></defs><g id="Notifications_and_Activity_-_Preview" data-name="Notifications and Activity - Preview"><line class="cls-1" x1="90.18" y1="9.15" x2="5.13" y2="94.19"/><line class="cls-1" x1="90.09" y1="9.15" x2="175.13" y2="94.19"/><path class="cls-1" d="M90.18,121.31H75.1A4.12,4.12,0,0,0,71,125.43v41.28a4.12,4.12,0,0,1-4.12,4.13H30.24a4.13,4.13,0,0,1-4.14-4.13V96.54"/><path class="cls-1" d="M90.18,121.31h15.07a4.12,4.12,0,0,1,4.13,4.12v41.28a4.13,4.13,0,0,0,4.13,4.13h36.61a4.13,4.13,0,0,0,4.13-4.13V96.54"/><path class="cls-1" d="M119.42,19.59h24.72a2.91,2.91,0,0,1,2.91,2.91V46.32"/></g></svg>