<svg id="App_Icon_Kit_A" data-name="App Icon Kit A" xmlns="http://www.w3.org/2000/svg" viewBox="0 0 120 120"><defs><style>.cls-1{fill:none;stroke:#000;stroke-linecap:round;stroke-miterlimit:10;stroke-width:5.54px;}</style></defs><g id="Notifications_and_Activity_-_Preview" data-name="Notifications and Activity - Preview"><line class="cls-1" x1="60.03" y1="7.69" x2="5" y2="62.71"/><line class="cls-1" x1="59.97" y1="7.69" x2="115" y2="62.71"/><path class="cls-1" d="M60,80.26H50.27a2.67,2.67,0,0,0-2.67,2.67v26.7a2.67,2.67,0,0,1-2.67,2.68H21.24a2.66,2.66,0,0,1-2.67-2.67V64.23"/><path class="cls-1" d="M60,80.26h9.75a2.67,2.67,0,0,1,2.68,2.67v26.7a2.67,2.67,0,0,0,2.67,2.68H98.82a2.66,2.66,0,0,0,2.67-2.67V64.23"/><path class="cls-1" d="M79,14.44H95a1.88,1.88,0,0,1,1.88,1.88V31.74"/></g></svg>