<svg id="App_Icon_Kit_A" data-name="App Icon Kit A" xmlns="http://www.w3.org/2000/svg" viewBox="0 0 180 180"><defs><style>.cls-1{fill:none;stroke:#000;stroke-linecap:round;stroke-miterlimit:10;stroke-width:8.57px;}</style></defs><g id="Notifications_and_Activity_-_Preview" data-name="Notifications and Activity - Preview"><line class="cls-1" x1="90.04" y1="9.15" x2="5" y2="94.19"/><line class="cls-1" x1="89.96" y1="9.15" x2="175" y2="94.19"/><path class="cls-1" d="M90,121.31H75a4.12,4.12,0,0,0-4.13,4.12v41.28a4.13,4.13,0,0,1-4.13,4.13H30.1A4.13,4.13,0,0,1,26,166.72V96.54"/><path class="cls-1" d="M90,121.31h15.08a4.12,4.12,0,0,1,4.13,4.12v41.28a4.13,4.13,0,0,0,4.13,4.13H150a4.13,4.13,0,0,0,4.13-4.13V96.54"/><path class="cls-1" d="M119.29,19.59H144a2.91,2.91,0,0,1,2.91,2.91V46.32"/></g></svg>