<svg id="App_Icon_Kit_A" data-name="App Icon Kit A" xmlns="http://www.w3.org/2000/svg" viewBox="0 0 58 58"><defs><style>.cls-1{fill:none;stroke:#000;stroke-linecap:round;stroke-miterlimit:10;stroke-width:2.62px;}</style></defs><g id="Notifications_and_Activity_-_Preview" data-name="Notifications and Activity - Preview"><line class="cls-1" x1="29.01" y1="4.27" x2="3" y2="30.28"/><line class="cls-1" x1="28.99" y1="4.27" x2="55" y2="30.28"/><path class="cls-1" d="M29,38.58H24.4a1.25,1.25,0,0,0-1.26,1.26V52.46a1.27,1.27,0,0,1-1.26,1.27H10.68a1.26,1.26,0,0,1-1.27-1.26V31"/><path class="cls-1" d="M29,38.58h4.61a1.26,1.26,0,0,1,1.27,1.26V52.46a1.26,1.26,0,0,0,1.26,1.27h11.2a1.25,1.25,0,0,0,1.26-1.26V31"/><path class="cls-1" d="M38,7.46h7.56a.89.89,0,0,1,.89.89v7.29"/></g></svg>