<svg id="App_Icon_Kit_A" data-name="App Icon Kit A" xmlns="http://www.w3.org/2000/svg" viewBox="0 0 29 29"><defs><style>.cls-1{fill:none;stroke:#000;stroke-linecap:round;stroke-miterlimit:10;stroke-width:1.21px;}</style></defs><g id="Notifications_and_Activity_-_Preview" data-name="Notifications and Activity - Preview"><line class="cls-1" x1="14.51" y1="3.09" x2="2.5" y2="15.09"/><line class="cls-1" x1="14.49" y1="3.09" x2="26.5" y2="15.09"/><path class="cls-1" d="M14.51,18.92H12.38a.58.58,0,0,0-.58.58v5.83a.59.59,0,0,1-.59.58H6a.58.58,0,0,1-.58-.58V15.42"/><path class="cls-1" d="M14.51,18.92h2.12a.58.58,0,0,1,.59.58v5.83a.58.58,0,0,0,.58.58H23a.58.58,0,0,0,.58-.58V15.42"/><path class="cls-1" d="M18.63,4.56h3.49a.41.41,0,0,1,.42.41V8.33"/></g></svg>