<svg id="App_Icon_Kit_A" data-name="App Icon Kit A" xmlns="http://www.w3.org/2000/svg" viewBox="0 0 57 57"><defs><style>.cls-1{fill:none;stroke:#000;stroke-linecap:round;stroke-miterlimit:10;stroke-width:2.62px;}</style></defs><g id="Notifications_and_Activity_-_Preview" data-name="Notifications and Activity - Preview"><line class="cls-1" x1="28.51" y1="3.77" x2="2.5" y2="29.78"/><line class="cls-1" x1="28.49" y1="3.77" x2="54.5" y2="29.78"/><path class="cls-1" d="M28.51,38.08H23.9a1.25,1.25,0,0,0-1.26,1.26V52a1.27,1.27,0,0,1-1.26,1.27H10.18A1.26,1.26,0,0,1,8.91,52V30.5"/><path class="cls-1" d="M28.51,38.08h4.61a1.26,1.26,0,0,1,1.27,1.26V52a1.26,1.26,0,0,0,1.26,1.27h11.2A1.25,1.25,0,0,0,48.11,52V30.5"/><path class="cls-1" d="M37.46,7H45a.89.89,0,0,1,.89.89v7.29"/></g></svg>