<svg id="App_Icon_Kit_A" data-name="App Icon Kit A" xmlns="http://www.w3.org/2000/svg" viewBox="0 0 40 40"><defs><style>.cls-1{fill:none;stroke:#000;stroke-linecap:round;stroke-miterlimit:10;stroke-width:1.71px;}</style></defs><g id="Notifications_and_Activity_-_Preview" data-name="Notifications and Activity - Preview"><line class="cls-1" x1="20.01" y1="3.83" x2="3" y2="20.84"/><line class="cls-1" x1="19.99" y1="3.83" x2="37" y2="20.84"/><path class="cls-1" d="M20,26.26H17a.83.83,0,0,0-.82.83v8.25a.83.83,0,0,1-.83.83H8a.83.83,0,0,1-.83-.83v-14"/><path class="cls-1" d="M20,26.26h3a.83.83,0,0,1,.83.83v8.25a.83.83,0,0,0,.83.83H32a.83.83,0,0,0,.82-.83v-14"/><path class="cls-1" d="M25.86,5.92H30.8a.58.58,0,0,1,.58.58v4.76"/></g></svg>