<svg id="App_Icon_Kit_A" data-name="App Icon Kit A" xmlns="http://www.w3.org/2000/svg" viewBox="0 0 87 87"><defs><style>.cls-1{fill:none;stroke:#000;stroke-linecap:round;stroke-miterlimit:10;stroke-width:3.88px;}</style></defs><g id="Notifications_and_Activity_-_Preview" data-name="Notifications and Activity - Preview"><line class="cls-1" x1="43.52" y1="6.88" x2="5" y2="45.4"/><line class="cls-1" x1="43.48" y1="6.88" x2="82" y2="45.4"/><path class="cls-1" d="M43.52,57.68H36.69a1.87,1.87,0,0,0-1.87,1.87V78.24A1.87,1.87,0,0,1,33,80.11H16.37a1.87,1.87,0,0,1-1.87-1.87V46.46"/><path class="cls-1" d="M43.52,57.68h6.83a1.87,1.87,0,0,1,1.87,1.87V78.24a1.87,1.87,0,0,0,1.87,1.87H70.67a1.87,1.87,0,0,0,1.87-1.87V46.46"/><path class="cls-1" d="M56.77,11.61H68a1.32,1.32,0,0,1,1.32,1.32V23.72"/></g></svg>