<svg id="App_Icon_Kit_A" data-name="App Icon Kit A" xmlns="http://www.w3.org/2000/svg" viewBox="0 0 1024 1024"><defs><style>.cls-1{fill:none;stroke:#000;stroke-linecap:round;stroke-miterlimit:10;stroke-width:48px;}</style></defs><g id="Notifications_and_Activity_-_Preview" data-name="Notifications and Activity - Preview"><line class="cls-1" x1="512" y1="86" x2="35.5" y2="562.5"/><line class="cls-1" x1="511.5" y1="86" x2="988" y2="562.5"/><path class="cls-1" d="M512,714.4H427.53a23.14,23.14,0,0,0-23.13,23.13V968.79a23.14,23.14,0,0,1-23.13,23.13L176.14,992A23.12,23.12,0,0,1,153,968.86V575.63"/><path class="cls-1" d="M512,714.4h84.47a23.14,23.14,0,0,1,23.13,23.13V968.79a23.14,23.14,0,0,0,23.13,23.13l205.13.07A23.12,23.12,0,0,0,871,968.86V575.63"/><path class="cls-1" d="M675.85,144.5H814.36a16.31,16.31,0,0,1,16.31,16.31V294.26"/></g></svg>