<svg id="App_Icon_Kit_A" data-name="App Icon Kit A" xmlns="http://www.w3.org/2000/svg" viewBox="0 0 114 114"><defs><style>.cls-1{fill:none;stroke:#000;stroke-linecap:round;stroke-miterlimit:10;stroke-width:5.29px;}</style></defs><g id="Notifications_and_Activity_-_Preview" data-name="Notifications and Activity - Preview"><line class="cls-1" x1="57.03" y1="7.06" x2="4.5" y2="59.59"/><line class="cls-1" x1="56.97" y1="7.06" x2="109.5" y2="59.59"/><path class="cls-1" d="M57,76.34H47.72a2.55,2.55,0,0,0-2.55,2.55v25.49a2.55,2.55,0,0,1-2.55,2.55H20a2.56,2.56,0,0,1-2.55-2.55V61"/><path class="cls-1" d="M57,76.34h9.31a2.55,2.55,0,0,1,2.55,2.55v25.49a2.55,2.55,0,0,0,2.55,2.55H94.05a2.55,2.55,0,0,0,2.55-2.55V61"/><path class="cls-1" d="M75.09,13.51H90.36a1.81,1.81,0,0,1,1.8,1.8V30"/></g></svg>